<svg width="18" height="18" fill="none" xmlns="http://www.w3.org/2000/svg"><path d="M5.4 13.308l3.6-3.6 3.6 3.6.708-.708-3.6-3.6 3.6-3.6-.708-.708-3.6 3.6-3.6-3.6-.708.708 3.6 3.6-3.6 3.6.708.708zM9.003 18a8.779 8.779 0 01-3.51-.708 9.103 9.103 0 01-2.859-1.924 9.088 9.088 0 01-1.925-2.856A8.752 8.752 0 010 9.003c0-1.245.236-2.415.709-3.51A9.106 9.106 0 012.63 2.634 9.055 9.055 0 015.487.709 8.768 8.768 0 018.997 0c1.244 0 2.414.236 3.51.709a9.098 9.098 0 012.859 1.922 9.07 9.07 0 011.925 2.857A8.76 8.76 0 0118 8.997a8.779 8.779 0 01-.708 3.51 9.065 9.065 0 01-1.924 2.859 9.126 9.126 0 01-2.856 1.925A8.724 8.724 0 019.003 18zM9 17c2.233 0 4.125-.775 5.675-2.325C16.225 13.125 17 11.233 17 9c0-2.233-.775-4.125-2.325-5.675C13.125 1.775 11.233 1 9 1c-2.233 0-4.125.775-5.675 2.325C1.775 4.875 1 6.767 1 9c0 2.233.775 4.125 2.325 5.675C4.875 16.225 6.767 17 9 17z" fill="#FF5454"/></svg>