<svg xmlns="http://www.w3.org/2000/svg" width="21" height="21" fill="none"><path fill="#ffb700" fill-rule="evenodd" d="M10.11 1.69a7.6 7.6 0 0 1 7.59 7.58c0 2.59-1.42 4.7-2.9 6.23q-1.12 1.13-2.43 2.04l-.36.24-.17.11-.31.2-.29.18-.35.2a1.6 1.6 0 0 1-1.56 0l-.35-.2-.44-.27-.16-.1-.35-.24a17 17 0 0 1-2.6-2.16c-1.49-1.52-2.9-3.64-2.9-6.23a7.6 7.6 0 0 1 7.58-7.58m0 1.68a5.9 5.9 0 0 0-5.9 5.9c0 1.96 1.07 3.67 2.42 5.05q.87.89 1.87 1.61l.39.28.36.24.33.2.29.18.24.15.38-.23.31-.2.53-.34.39-.28q1.01-.72 1.87-1.6c1.35-1.39 2.42-3.1 2.42-5.06a5.9 5.9 0 0 0-5.9-5.9m0 2.53a3.37 3.37 0 1 1 0 6.74 3.37 3.37 0 0 1 0-6.74m0 1.68a1.69 1.69 0 1 0 0 3.37 1.69 1.69 0 0 0 0-3.37" clip-rule="evenodd"/></svg>