<svg width="42" height="42" fill="none" xmlns="http://www.w3.org/2000/svg"><rect x=".5" y=".5" width="41" height="41" rx="20.5" stroke="#F2C975"/><path d="M13.616 28c-.46 0-.845-.154-1.153-.462-.308-.308-.462-.693-.463-1.154V15.616c0-.46.154-.845.463-1.153A1.57 1.57 0 0113.615 14h14.77c.46 0 .844.154 1.152.463.308.309.462.693.463 1.153v10.769c0 .46-.154.844-.463 1.153a1.56 1.56 0 01-1.152.462H13.616zM21 21.116l-8-5.231v10.5c0 .18.058.327.173.442a.6.6 0 00.443.173h14.769c.18 0 .327-.058.442-.173a.6.6 0 00.173-.443v-10.5l-8 5.232zM21 20l7.692-5H13.308L21 20zm-8-4.115V15v11.385c0 .18.058.327.173.442a.6.6 0 00.443.173H13V15.885z" fill="#F2C975"/></svg>