<svg width="26" height="26" fill="none" xmlns="http://www.w3.org/2000/svg"><path d="M22.75 7.167v11.667c0 .498-.167.914-.5 1.249-.334.334-.75.501-1.25.5H5c-.499 0-.915-.166-1.248-.5-.334-.334-.501-.75-.502-1.25V7.167c0-.499.167-.915.502-1.249.334-.333.75-.5 1.248-.501h16c.499 0 .915.167 1.248.501.334.335.501.751.502 1.25zM4.333 9.542h17.334V7.167a.64.64 0 00-.208-.459A.631.631 0 0021 6.5H5a.64.64 0 00-.459.208.632.632 0 00-.208.46v2.374zm0 2.583v6.709c0 .166.07.319.208.458.14.14.292.209.459.208h16a.64.64 0 00.459-.208.631.631 0 00.208-.458v-6.71H4.333z" fill="#F2C975"/></svg>