<svg width="42" height="42" fill="none" xmlns="http://www.w3.org/2000/svg"><rect x=".5" y=".5" width="41" height="41" rx="20.5" stroke="#F2C975"/><path d="M17.246 11.111l-.94.284a4.586 4.586 0 00-3.216 3.747c-.389 2.715.481 5.89 2.58 9.53 2.092 3.631 4.396 5.97 6.932 6.995a4.58 4.58 0 004.868-.926l.71-.674a2.628 2.628 0 00.324-3.444l-1.777-2.468a1.966 1.966 0 00-2.169-.73l-2.687.823-.07.013c-.296.043-.98-.599-1.832-2.077-.891-1.547-1.075-2.451-.83-2.685l1.367-1.277a3.284 3.284 0 00.754-3.742l-.868-1.931a2.624 2.624 0 00-3.146-1.438zm1.954 1.976l.865 1.931a1.973 1.973 0 01-.451 2.245l-1.37 1.28c-.879.832-.588 2.252.591 4.297 1.11 1.925 2.12 2.876 3.209 2.71l.162-.034 2.736-.836a.653.653 0 01.724.243l1.777 2.468a1.315 1.315 0 01-.161 1.722l-.712.675a3.274 3.274 0 01-3.477.66c-2.225-.898-4.328-3.034-6.287-6.433-1.965-3.406-2.76-6.304-2.418-8.687a3.286 3.286 0 012.297-2.677l.94-.283a1.308 1.308 0 011.572.72" fill="#F2C975"/></svg>