<svg id="Layer_2" data-name="Layer 2" xmlns="http://www.w3.org/2000/svg" viewBox="0 0 341.39 484.29"><defs><style>.cls-1{fill:#fff;}</style></defs><g id="anub"><polygon class="cls-1" points="286.98 219.53 341.39 369.12 282.43 412.15 282.43 230.08 286.98 219.53"/><polygon class="cls-1" points="54.42 219.53 0 369.12 58.97 412.15 58.97 230.08 54.42 219.53"/><polygon class="cls-1" points="270.22 296.98 239.39 327.81 222.08 393.53 222.08 484.3 270.22 447.05 270.22 296.98"/><polygon class="cls-1" points="70.46 296.98 101.29 327.81 118.6 393.53 118.6 484.3 70.46 447.05 70.46 296.98"/><polygon class="cls-1" points="190.66 405.84 170.59 398.39 150.21 405.84 155.07 409.98 185.08 410.39 190.66 405.84"/><path class="cls-1" d="M335,13.85,288.69,165.1s-35.59-7-65,.21L177.38,13.85l-48,168.22,26.4,57.31v53.79l41,41.8,18.83,68.48,11.18,10.25,23.17-8,.14-10.28s-20.56-11.65-11.73-21.79l34.28.07s9.86,7-11.24,21.65v10l23,8.31,11.38-9.63,18.31-68.79,41.38-41.38V239.79l26.9-57.1ZM149.15,181.45v-2.59L177,66.3,188.46,182,165.9,217.55Zm74.47,108.9c-3.93-1-31.11-10.49-31.11-10.49l-17.38-27,43,13.1,14.76,20.83,1,47.59S227.55,291.38,223.62,290.35ZM319,279.86s-27.18,9.45-31.11,10.49-10.21,44-10.21,44l1-47.59,14.76-20.83,43-13.1Zm27.58-62.31L324.07,182,335.56,66.3l27.82,112.56v2.59Z" transform="translate(-85.3 -13.85)"/><path class="cls-1" d="M268.4,234.43c-12.44,1.66-24-7.81-25.76-21.16-1.35-10.06,3.24-19.46,10.92-24.18a25,25,0,1,0,23.2,42.36A21.35,21.35,0,0,1,268.4,234.43Z" transform="translate(-85.3 -13.85)"/></g></svg>