<?xml version="1.0" encoding="UTF-8"?>
<svg id="Layer_2" data-name="Layer 2" xmlns="http://www.w3.org/2000/svg" viewBox="0 0 1080 1080">
  <defs>
    <style>
      .cls-1 {
        fill: #fff;
        stroke-width: 0px;
      }
    </style>
  </defs>
  <g id="anub">
    <polygon class="cls-1" points="559.61 517.03 568.79 542.26 558.85 549.52 558.85 518.81 559.61 517.03"/>
    <polygon class="cls-1" points="520.39 517.03 511.21 542.26 521.16 549.52 521.16 518.81 520.39 517.03"/>
    <polygon class="cls-1" points="556.79 530.09 551.59 535.29 548.67 546.38 548.67 561.68 556.79 555.4 556.79 530.09"/>
    <polygon class="cls-1" points="523.09 530.09 528.29 535.29 531.21 546.38 531.21 561.68 523.09 555.4 523.09 530.09"/>
    <polygon class="cls-1" points="543.37 548.45 539.98 547.2 536.55 548.45 537.37 549.15 542.43 549.22 543.37 548.45"/>
    <path class="cls-1" d="m553.33,480l-7.82,25.51s-6-1.19-10.96.03l-7.82-25.55-8.1,28.37,4.45,9.67v9.07l6.93,7.05,3.18,11.55,1.88,1.73,3.91-1.34.02-1.73s-3.47-1.97-1.98-3.68h5.78s1.66,1.19-1.9,3.66v1.69l3.88,1.4,1.92-1.62,3.09-11.6,6.98-6.98v-9.13l4.54-9.63-7.99-28.48Zm-31.35,28.27v-.44l4.69-18.98,1.94,19.51-3.8,6-2.83-6.09Zm12.56,18.37c-.66-.17-5.25-1.77-5.25-1.77l-2.93-4.56,7.25,2.21,2.49,3.51.16,8.03s-1.06-7.25-1.72-7.42Zm16.09-1.77s-4.58,1.59-5.25,1.77c-.66.17-1.72,7.42-1.72,7.42l.16-8.03,2.49-3.51,7.25-2.21-2.93,4.56Zm4.65-10.51l-3.8-6,1.94-19.51,4.69,18.98v.44l-2.83,6.09Z"/>
    <path class="cls-1" d="m542.09,517.2c-2.1.28-4.04-1.32-4.35-3.57-.23-1.7.55-3.28,1.84-4.08-2.08.5-3.48,2.5-3.19,4.66.31,2.31,2.43,3.93,4.74,3.63.93-.12,1.74-.54,2.36-1.15-.42.26-.9.43-1.41.5Z"/>
  </g>
  <g>
    <g>
      <path class="cls-1" d="m478.51,583.58c-.14,0-.26-.05-.36-.14-.1-.1-.15-.22-.15-.37v-13.42c0-.15.05-.27.15-.37.1-.1.22-.14.36-.14h1.92c.21,0,.36.06.46.17.1.11.18.19.22.25l3.8,7,3.84-7c.03-.05.09-.14.2-.25.1-.11.26-.17.46-.17h1.92c.15,0,.28.05.37.14.1.1.14.22.14.37v13.42c0,.15-.05.28-.14.37s-.22.14-.37.14h-2.1c-.14,0-.25-.05-.35-.14s-.14-.22-.14-.37v-8.34l-2.62,4.91c-.07.12-.16.23-.27.33-.11.1-.25.14-.43.14h-.97c-.18,0-.32-.05-.43-.14-.11-.1-.2-.21-.27-.33l-2.62-4.91v8.34c0,.15-.05.28-.14.37-.1.1-.21.14-.35.14h-2.11Z"/>
      <path class="cls-1" d="m501.27,583.79c-1.25,0-2.33-.21-3.24-.62-.91-.41-1.62-1.04-2.13-1.87-.51-.83-.78-1.88-.83-3.15-.01-.59-.02-1.18-.02-1.76s0-1.18.02-1.79c.04-1.24.32-2.28.84-3.13s1.23-1.48,2.15-1.91c.92-.43,1.98-.64,3.21-.64s2.27.21,3.19.64c.92.43,1.63,1.06,2.16,1.91.52.85.8,1.89.83,3.13.03.61.04,1.2.04,1.79s-.01,1.17-.04,1.76c-.04,1.27-.32,2.31-.83,3.15-.51.83-1.22,1.46-2.13,1.87-.91.41-1.98.62-3.22.62Zm0-2.66c.8,0,1.46-.24,1.97-.73.52-.49.79-1.27.82-2.34.03-.61.04-1.17.04-1.7s-.01-1.09-.04-1.68c-.01-.71-.14-1.3-.39-1.75-.25-.45-.58-.79-.98-1-.41-.21-.88-.32-1.41-.32s-1.01.11-1.42.32-.74.55-.98,1c-.24.45-.38,1.04-.4,1.75-.01.59-.02,1.15-.02,1.68s0,1.1.02,1.7c.04,1.07.32,1.85.83,2.34s1.17.73,1.98.73Z"/>
      <path class="cls-1" d="m516.42,583.79c-1.25,0-2.33-.21-3.24-.62-.91-.41-1.62-1.04-2.13-1.87-.51-.83-.78-1.88-.83-3.15-.01-.59-.02-1.18-.02-1.76s0-1.18.02-1.79c.04-1.24.32-2.28.84-3.13s1.23-1.48,2.15-1.91c.92-.43,1.98-.64,3.21-.64s2.27.21,3.19.64c.92.43,1.63,1.06,2.16,1.91.52.85.8,1.89.83,3.13.03.61.04,1.2.04,1.79s-.01,1.17-.04,1.76c-.04,1.27-.32,2.31-.83,3.15-.51.83-1.22,1.46-2.13,1.87-.91.41-1.98.62-3.22.62Zm0-2.66c.8,0,1.46-.24,1.97-.73.52-.49.79-1.27.82-2.34.03-.61.04-1.17.04-1.7s-.01-1.09-.04-1.68c-.01-.71-.14-1.3-.39-1.75-.25-.45-.58-.79-.98-1-.41-.21-.88-.32-1.41-.32s-1.01.11-1.42.32-.74.55-.98,1c-.24.45-.38,1.04-.4,1.75-.01.59-.02,1.15-.02,1.68s0,1.1.02,1.7c.04,1.07.32,1.85.83,2.34s1.17.73,1.98.73Z"/>
      <path class="cls-1" d="m526.35,583.58c-.15,0-.28-.05-.37-.14-.1-.1-.14-.22-.14-.37v-13.42c0-.15.05-.27.14-.37s.22-.14.37-.14h1.88c.21,0,.36.05.45.14s.16.17.19.23l5.51,8.61v-8.46c0-.15.05-.27.14-.37.1-.1.21-.14.35-.14h2.1c.15,0,.28.05.37.14.1.1.14.22.14.37v13.42c0,.14-.05.26-.14.36-.1.1-.22.15-.37.15h-1.9c-.21,0-.35-.05-.44-.15-.09-.1-.16-.18-.2-.22l-5.49-8.34v8.19c0,.15-.05.28-.14.37-.1.1-.22.14-.37.14h-2.08Z"/>
      <path class="cls-1" d="m541.7,583.58c-.15,0-.28-.05-.37-.14-.1-.1-.14-.22-.14-.37v-13.42c0-.15.05-.27.14-.37s.22-.14.37-.14h2.29c.15,0,.28.05.37.14.1.1.14.22.14.37v11.17h6.4c.15,0,.28.05.37.14.1.1.14.22.14.37v1.73c0,.15-.05.28-.14.37-.1.1-.22.14-.37.14h-9.21Z"/>
      <path class="cls-1" d="m554.48,583.58c-.15,0-.28-.05-.37-.14-.1-.1-.14-.22-.14-.37v-13.42c0-.15.05-.27.14-.37s.22-.14.37-.14h2.33c.15,0,.28.05.37.14.1.1.14.22.14.37v13.42c0,.15-.05.28-.14.37s-.22.14-.37.14h-2.33Z"/>
      <path class="cls-1" d="m566.82,583.79c-1.29,0-2.4-.22-3.31-.65-.92-.43-1.62-1.07-2.13-1.9-.5-.83-.77-1.84-.82-3.02-.01-.59-.02-1.22-.02-1.9s0-1.31.02-1.92c.04-1.16.31-2.14.82-2.95.5-.81,1.22-1.44,2.15-1.87.93-.43,2.03-.65,3.29-.65,1.02,0,1.91.13,2.68.39.77.26,1.42.6,1.94,1.02.52.42.92.88,1.2,1.37s.42.97.43,1.42c0,.12-.04.23-.12.32-.08.09-.19.13-.33.13h-2.56c-.14,0-.25-.03-.32-.08-.08-.05-.14-.14-.2-.25-.1-.25-.25-.5-.46-.75-.21-.25-.5-.47-.86-.65-.36-.18-.83-.27-1.4-.27-.87,0-1.55.23-2.05.68-.5.46-.77,1.2-.82,2.23-.04,1.18-.04,2.39,0,3.61.04,1.07.32,1.84.84,2.31.52.47,1.21.7,2.07.7.56,0,1.07-.1,1.52-.3.45-.2.8-.51,1.06-.94.26-.43.39-.97.39-1.63v-.52h-2.25c-.14,0-.25-.05-.35-.16-.1-.1-.14-.22-.14-.36v-1.32c0-.15.05-.28.14-.37s.21-.14.35-.14h5.06c.15,0,.28.05.37.14.1.1.14.22.14.37v2.25c0,1.18-.26,2.19-.77,3.03-.52.84-1.25,1.48-2.21,1.93-.96.45-2.07.67-3.35.67Z"/>
      <path class="cls-1" d="m576.83,583.58c-.15,0-.28-.05-.37-.14-.1-.1-.14-.22-.14-.37v-13.42c0-.15.05-.27.14-.37s.22-.14.37-.14h2.25c.15,0,.28.05.37.14s.14.22.14.37v5.16h5.59v-5.16c0-.15.05-.27.14-.37.1-.1.22-.14.37-.14h2.25c.15,0,.28.05.37.14.1.1.14.22.14.37v13.42c0,.15-.05.28-.14.37s-.22.14-.37.14h-2.25c-.15,0-.28-.05-.37-.14s-.14-.22-.14-.37v-5.33h-5.59v5.33c0,.15-.05.28-.14.37-.1.1-.22.14-.37.14h-2.25Z"/>
      <path class="cls-1" d="m595.86,583.58c-.15,0-.28-.05-.37-.14s-.14-.22-.14-.37v-11.06h-3.76c-.14,0-.25-.05-.35-.14-.1-.1-.14-.21-.14-.35v-1.86c0-.15.05-.27.14-.37s.21-.14.35-.14h10.81c.15,0,.28.05.37.14.1.1.14.22.14.37v1.86c0,.14-.05.26-.14.35-.1.1-.22.14-.37.14h-3.74v11.06c0,.15-.05.28-.14.37-.1.1-.22.14-.37.14h-2.29Z"/>
    </g>
    <g>
      <path class="cls-1" d="m488.96,594.56h-2.52v2.34h2.81v.7h-3.64v-6.48h3.5v.7h-2.66v2.05h2.52v.69Z"/>
      <path class="cls-1" d="m500.23,597.31c-.38.13-1.12.36-1.99.36-.98,0-1.79-.25-2.42-.86-.56-.54-.9-1.4-.9-2.41,0-1.93,1.34-3.35,3.51-3.35.75,0,1.34.16,1.62.3l-.2.68c-.35-.15-.78-.28-1.43-.28-1.58,0-2.61.98-2.61,2.6s.99,2.62,2.5,2.62c.55,0,.92-.08,1.12-.17v-1.93h-1.32v-.67h2.13v3.11Z"/>
      <path class="cls-1" d="m507.92,597.6v-2.75l-2.05-3.73h.95l.91,1.79c.25.49.44.88.64,1.34h.02c.18-.42.4-.85.65-1.34l.93-1.79h.95l-2.17,3.72v2.76h-.85Z"/>
      <path class="cls-1" d="m516.58,591.19c.4-.07.93-.12,1.61-.12.83,0,1.43.19,1.82.54.36.31.57.78.57,1.36s-.17,1.05-.5,1.38c-.44.47-1.16.71-1.98.71-.25,0-.48,0-.67-.06v2.6h-.84v-6.4Zm.84,3.12c.18.05.41.07.69.07,1.01,0,1.62-.49,1.62-1.38s-.61-1.27-1.53-1.27c-.37,0-.64.03-.79.07v2.52Z"/>
      <path class="cls-1" d="m527.88,591.83h-1.97v-.71h4.8v.71h-1.98v5.77h-.85v-5.77Z"/>
      <path class="cls-1" d="m537.99,591.83h-1.97v-.71h4.8v.71h-1.98v5.77h-.85v-5.77Z"/>
      <path class="cls-1" d="m551.78,594.29c0,2.23-1.36,3.41-3.01,3.41s-2.91-1.33-2.91-3.29c0-2.06,1.28-3.4,3.01-3.4s2.91,1.36,2.91,3.28Zm-5.03.11c0,1.38.75,2.62,2.07,2.62s2.08-1.22,2.08-2.69c0-1.29-.67-2.63-2.07-2.63s-2.08,1.28-2.08,2.7Z"/>
      <path class="cls-1" d="m558.67,591.12v3.83c0,1.45.64,2.07,1.51,2.07.96,0,1.58-.63,1.58-2.07v-3.83h.85v3.78c0,1.99-1.05,2.81-2.45,2.81-1.33,0-2.33-.76-2.33-2.77v-3.82h.85Z"/>
      <path class="cls-1" d="m569.01,591.2c.42-.09,1.03-.13,1.61-.13.89,0,1.47.16,1.88.53.33.29.51.73.51,1.23,0,.86-.54,1.42-1.22,1.65v.03c.5.17.8.63.95,1.31.21.9.37,1.53.5,1.78h-.87c-.11-.18-.25-.74-.43-1.55-.19-.89-.54-1.23-1.3-1.26h-.79v2.81h-.84v-6.39Zm.84,2.95h.86c.89,0,1.46-.49,1.46-1.23,0-.84-.61-1.2-1.49-1.21-.4,0-.69.04-.83.08v2.37Z"/>
      <path class="cls-1" d="m579.03,596.58c.38.23.92.42,1.5.42.86,0,1.36-.45,1.36-1.11,0-.61-.35-.95-1.22-1.29-1.06-.38-1.71-.92-1.71-1.84,0-1.01.84-1.76,2.1-1.76.66,0,1.14.15,1.43.32l-.23.68c-.21-.12-.64-.31-1.23-.31-.88,0-1.22.53-1.22.97,0,.61.39.9,1.29,1.25,1.1.42,1.65.95,1.65,1.9,0,1-.74,1.86-2.27,1.86-.62,0-1.31-.18-1.65-.41l.21-.7Z"/>
    </g>
  </g>
</svg>