<svg id="Layer_2" data-name="Layer 2" xmlns="http://www.w3.org/2000/svg" viewBox="0 0 120 120"><defs><style>.cls-1{fill:#1c3664;}.cls-2{fill:#c39c4e;}</style></defs><g id="anub"><polygon class="cls-1" points="87.34 54.68 100.14 89.86 86.27 99.97 86.27 57.16 87.34 54.68"/><polygon class="cls-1" points="32.66 54.68 19.86 89.86 33.73 99.97 33.73 57.16 32.66 54.68"/><polygon class="cls-1" points="83.4 72.89 76.15 80.14 72.08 95.6 72.08 116.94 83.4 108.18 83.4 72.89"/><polygon class="cls-1" points="36.43 72.89 43.68 80.14 47.75 95.6 47.75 116.94 36.43 108.18 36.43 72.89"/><polygon class="cls-1" points="64.69 98.49 59.98 96.74 55.18 98.49 56.33 99.46 63.38 99.56 64.69 98.49"/><path class="cls-1" d="M78.58,3.06,67.69,38.63s-8.37-1.66-15.28,0L41.51,3.06,30.23,42.62l6.2,13.47V68.74l9.66,9.83,4.42,16.1,2.63,2.41,5.45-1.87,0-2.42s-4.83-2.74-2.76-5.12h8.06s2.32,1.64-2.64,5.09v2.36l5.41,2,2.68-2.26,4.3-16.18,9.73-9.73V56.19l6.33-13.43ZM34.87,42.47v-.61L41.42,15.4l2.7,27.19L38.82,51ZM52.39,68.08c-.93-.25-7.32-2.47-7.32-2.47L41,59.25l10.1,3.09,3.47,4.89.23,11.19S53.31,68.32,52.39,68.08Zm22.43-2.47s-6.39,2.22-7.31,2.47-2.4,10.34-2.4,10.34l.23-11.19,3.47-4.89,10.1-3.09ZM81.31,51,76,42.59l2.7-27.19,6.54,26.46v.61Z"/><path class="cls-2" d="M62.92,54.93a5.55,5.55,0,0,1-6.06-5,5.73,5.73,0,0,1,2.57-5.68,5.88,5.88,0,0,0,2.16,11.55,5.81,5.81,0,0,0,3.29-1.59A5.12,5.12,0,0,1,62.92,54.93Z"/></g></svg>